<svg id="visual" viewBox="0 0 900 600" width="900" height="600" xmlns="http://www.w3.org/2000/svg" xmlns:xlink="http://www.w3.org/1999/xlink" version="1.1"><path d="M0 43L53 43L53 33L106 33L106 45L159 45L159 52L212 52L212 39L265 39L265 50L318 50L318 41L371 41L371 44L424 44L424 44L476 44L476 43L529 43L529 32L582 32L582 49L635 49L635 46L688 46L688 48L741 48L741 49L794 49L794 52L847 52L847 32L900 32L900 42L900 0L900 0L847 0L847 0L794 0L794 0L741 0L741 0L688 0L688 0L635 0L635 0L582 0L582 0L529 0L529 0L476 0L476 0L424 0L424 0L371 0L371 0L318 0L318 0L265 0L265 0L212 0L212 0L159 0L159 0L106 0L106 0L53 0L53 0L0 0Z" fill="#24c5c6"></path><path d="M0 38L53 38L53 26L106 26L106 29L159 29L159 32L212 32L212 23L265 23L265 23L318 23L318 24L371 24L371 28L424 28L424 23L476 23L476 32L529 32L529 31L582 31L582 23L635 23L635 36L688 36L688 31L741 31L741 37L794 37L794 22L847 22L847 24L900 24L900 31L900 0L900 0L847 0L847 0L794 0L794 0L741 0L741 0L688 0L688 0L635 0L635 0L582 0L582 0L529 0L529 0L476 0L476 0L424 0L424 0L371 0L371 0L318 0L318 0L265 0L265 0L212 0L212 0L159 0L159 0L106 0L106 0L53 0L53 0L0 0Z" fill="#47cccc"></path><path d="M0 26L53 26L53 22L106 22L106 22L159 22L159 22L212 22L212 23L265 23L265 28L318 28L318 16L371 16L371 20L424 20L424 24L476 24L476 16L529 16L529 14L582 14L582 20L635 20L635 21L688 21L688 14L741 14L741 21L794 21L794 28L847 28L847 23L900 23L900 13L900 0L900 0L847 0L847 0L794 0L794 0L741 0L741 0L688 0L688 0L635 0L635 0L582 0L582 0L529 0L529 0L476 0L476 0L424 0L424 0L371 0L371 0L318 0L318 0L265 0L265 0L212 0L212 0L159 0L159 0L106 0L106 0L53 0L53 0L0 0Z" fill="#5fd2d2"></path><path d="M0 13L53 13L53 7L106 7L106 17L159 17L159 5L212 5L212 9L265 9L265 14L318 14L318 9L371 9L371 5L424 5L424 13L476 13L476 4L529 4L529 18L582 18L582 5L635 5L635 6L688 6L688 9L741 9L741 11L794 11L794 5L847 5L847 6L900 6L900 16L900 0L900 0L847 0L847 0L794 0L794 0L741 0L741 0L688 0L688 0L635 0L635 0L582 0L582 0L529 0L529 0L476 0L476 0L424 0L424 0L371 0L371 0L318 0L318 0L265 0L265 0L212 0L212 0L159 0L159 0L106 0L106 0L53 0L53 0L0 0Z" fill="#74d9d9"></path></svg>