<svg id="visual" viewBox="0 0 900 600" width="900" height="600" xmlns="http://www.w3.org/2000/svg" xmlns:xlink="http://www.w3.org/1999/xlink" version="1.1"><rect width="900" height="600" fill="#ffffff"></rect><g><g transform="translate(699 460)"><path d="M0 -51.4L44.5 -25.7L44.5 25.7L0 51.4L-44.5 25.7L-44.5 -25.7Z" fill="#00b3b5"></path></g><g transform="translate(425 528)"><path d="M0 -33L28.6 -16.5L28.6 16.5L0 33L-28.6 16.5L-28.6 -16.5Z" fill="#00b3b5"></path></g><g transform="translate(792 541)"><path d="M0 -31L26.8 -15.5L26.8 15.5L0 31L-26.8 15.5L-26.8 -15.5Z" fill="#00b3b5"></path></g><g transform="translate(540 104)"><path d="M0 -12L10.4 -6L10.4 6L0 12L-10.4 6L-10.4 -6Z" fill="#00b3b5"></path></g><g transform="translate(691 217)"><path d="M0 -15L13 -7.5L13 7.5L0 15L-13 7.5L-13 -7.5Z" fill="#00b3b5"></path></g><g transform="translate(757 86)"><path d="M0 -33L28.6 -16.5L28.6 16.5L0 33L-28.6 16.5L-28.6 -16.5Z" fill="#00b3b5"></path></g><g transform="translate(459 303)"><path d="M0 -21L18.2 -10.5L18.2 10.5L0 21L-18.2 10.5L-18.2 -10.5Z" fill="#00b3b5"></path></g><g transform="translate(812 277)"><path d="M0 -45L39 -22.5L39 22.5L0 45L-39 22.5L-39 -22.5Z" fill="#00b3b5"></path></g><g transform="translate(73 272)"><path d="M0 -18L15.6 -9L15.6 9L0 18L-15.6 9L-15.6 -9Z" fill="#00b3b5"></path></g><g transform="translate(574 491)"><path d="M0 -36L31.2 -18L31.2 18L0 36L-31.2 18L-31.2 -18Z" fill="#00b3b5"></path></g><g transform="translate(311 424)"><path d="M0 -46L39.8 -23L39.8 23L0 46L-39.8 23L-39.8 -23Z" fill="#00b3b5"></path></g><g transform="translate(272 216)"><path d="M0 -29L25.1 -14.5L25.1 14.5L0 29L-25.1 14.5L-25.1 -14.5Z" fill="#00b3b5"></path></g><g transform="translate(69 489)"><path d="M0 -31L26.8 -15.5L26.8 15.5L0 31L-26.8 15.5L-26.8 -15.5Z" fill="#00b3b5"></path></g><g transform="translate(162 135)"><path d="M0 -35L30.3 -17.5L30.3 17.5L0 35L-30.3 17.5L-30.3 -17.5Z" fill="#00b3b5"></path></g><g transform="translate(69 55)"><path d="M0 -35L30.3 -17.5L30.3 17.5L0 35L-30.3 17.5L-30.3 -17.5Z" fill="#00b3b5"></path></g><g transform="translate(713 328)"><path d="M0 -44L38.1 -22L38.1 22L0 44L-38.1 22L-38.1 -22Z" fill="#00b3b5"></path></g><g transform="translate(568 318)"><path d="M0 -31L26.8 -15.5L26.8 15.5L0 31L-26.8 15.5L-26.8 -15.5Z" fill="#00b3b5"></path></g><g transform="translate(436 412)"><path d="M0 -8L6.9 -4L6.9 4L0 8L-6.9 4L-6.9 -4Z" fill="#00b3b5"></path></g><g transform="translate(194 508)"><path d="M0 -7L6.1 -3.5L6.1 3.5L0 7L-6.1 3.5L-6.1 -3.5Z" fill="#00b3b5"></path></g><g transform="translate(402 52)"><path d="M0 -39L33.8 -19.5L33.8 19.5L0 39L-33.8 19.5L-33.8 -19.5Z" fill="#00b3b5"></path></g><g transform="translate(211 349)"><path d="M0 -43L37.2 -21.5L37.2 21.5L0 43L-37.2 21.5L-37.2 -21.5Z" fill="#00b3b5"></path></g><g transform="translate(415 193)"><path d="M0 -17L14.7 -8.5L14.7 8.5L0 17L-14.7 8.5L-14.7 -8.5Z" fill="#00b3b5"></path></g><g transform="translate(282 88)"><path d="M0 -35L30.3 -17.5L30.3 17.5L0 35L-30.3 17.5L-30.3 -17.5Z" fill="#00b3b5"></path></g><g transform="translate(569 204)"><path d="M0 -28L24.2 -14L24.2 14L0 28L-24.2 14L-24.2 -14Z" fill="#00b3b5"></path></g><g transform="translate(317 316)"><path d="M0 -26L22.5 -13L22.5 13L0 26L-22.5 13L-22.5 -13Z" fill="#00b3b5"></path></g><g transform="translate(834 418)"><path d="M0 -36L31.2 -18L31.2 18L0 36L-31.2 18L-31.2 -18Z" fill="#00b3b5"></path></g><g transform="translate(72 377)"><path d="M0 -19L16.5 -9.5L16.5 9.5L0 19L-16.5 9.5L-16.5 -9.5Z" fill="#00b3b5"></path></g><g transform="translate(647 116)"><path d="M0 -47L40.7 -23.5L40.7 23.5L0 47L-40.7 23.5L-40.7 -23.5Z" fill="#00b3b5"></path></g><g transform="translate(833 169)"><path d="M0 -36L31.2 -18L31.2 18L0 36L-31.2 18L-31.2 -18Z" fill="#00b3b5"></path></g><g transform="translate(54 163)"><path d="M0 -17L14.7 -8.5L14.7 8.5L0 17L-14.7 8.5L-14.7 -8.5Z" fill="#00b3b5"></path></g><g transform="translate(296 545)"><path d="M0 -45L39 -22.5L39 22.5L0 45L-39 22.5L-39 -22.5Z" fill="#00b3b5"></path></g></g></svg>