<svg id="visual" viewBox="0 0 900 600" width="900" height="600" xmlns="http://www.w3.org/2000/svg" xmlns:xlink="http://www.w3.org/1999/xlink" version="1.1"><g stroke-width="1" stroke-linejoin="bevel"><path d="M508.3 334L498.3 376L621.9 440Z" fill="#ebbbbb" stroke="#ebbbbb"></path><path d="M621.9 440L736.4 412L508.3 334Z" fill="#fcf3f3" stroke="#fcf3f3"></path><path d="M512.3 572L646.9 551L621.9 440Z" fill="#fcf3f3" stroke="#fcf3f3"></path><path d="M621.9 440L646.9 551L736.4 412Z" fill="#e7b0b0" stroke="#e7b0b0"></path><path d="M498.3 376L512.3 572L621.9 440Z" fill="#d98f8f" stroke="#d98f8f"></path><path d="M512.3 572L590.3 600L646.9 551Z" fill="#de9a9a" stroke="#de9a9a"></path><path d="M730.4 177L651.9 147L508.3 334Z" fill="#f9e8e8" stroke="#f9e8e8"></path><path d="M736.4 412L730.4 177L508.3 334Z" fill="#ffffff" stroke="#ffffff"></path><path d="M590.3 600L682.9 600L646.9 551Z" fill="#e7b0b0" stroke="#e7b0b0"></path><path d="M646.9 551L682.9 600L736.4 412Z" fill="#f3d1d1" stroke="#f3d1d1"></path><path d="M321.1 298L315.7 377L498.3 376Z" fill="#ffffff" stroke="#ffffff"></path><path d="M498.3 376L398.7 572L512.3 572Z" fill="#e7b0b0" stroke="#e7b0b0"></path><path d="M321.1 298L498.3 376L508.3 334Z" fill="#d98f8f" stroke="#d98f8f"></path><path d="M341.1 223L321.1 298L508.3 334Z" fill="#e2a5a5" stroke="#e2a5a5"></path><path d="M315.7 377L398.7 572L498.3 376Z" fill="#ffffff" stroke="#ffffff"></path><path d="M512.3 572L334.7 600L590.3 600Z" fill="#ffffff" stroke="#ffffff"></path><path d="M900 349L838.4 297L900 411Z" fill="#f9e8e8" stroke="#f9e8e8"></path><path d="M736.4 412L838.4 297L730.4 177Z" fill="#ffffff" stroke="#ffffff"></path><path d="M430.3 85L341.1 223L508.3 334Z" fill="#f6dddc" stroke="#f6dddc"></path><path d="M341.1 223L309.7 280L321.1 298Z" fill="#efc6c6" stroke="#efc6c6"></path><path d="M321.1 298L309.7 280L315.7 377Z" fill="#e2a5a5" stroke="#e2a5a5"></path><path d="M730.4 177L721.9 54L651.9 147Z" fill="#efc6c6" stroke="#efc6c6"></path><path d="M838.4 297L822.4 166L730.4 177Z" fill="#f9e8e8" stroke="#f9e8e8"></path><path d="M900 411L838.4 297L736.4 412Z" fill="#ffffff" stroke="#ffffff"></path><path d="M838.4 297L900 203L822.4 166Z" fill="#ebbbbb" stroke="#ebbbbb"></path><path d="M563.3 0L430.3 85L651.9 147Z" fill="#efc6c6" stroke="#efc6c6"></path><path d="M651.9 147L430.3 85L508.3 334Z" fill="#ffffff" stroke="#ffffff"></path><path d="M845.4 600L900 411L736.4 412Z" fill="#ebbbbb" stroke="#ebbbbb"></path><path d="M315.7 377L334.7 600L398.7 572Z" fill="#ebbbbb" stroke="#ebbbbb"></path><path d="M398.7 572L334.7 600L512.3 572Z" fill="#f6dddc" stroke="#f6dddc"></path><path d="M822.4 166L721.9 54L730.4 177Z" fill="#fcf3f3" stroke="#fcf3f3"></path><path d="M682.9 600L845.4 600L736.4 412Z" fill="#fcf3f3" stroke="#fcf3f3"></path><path d="M900 349L900 203L838.4 297Z" fill="#de9a9a" stroke="#de9a9a"></path><path d="M822.4 166L900 0L721.9 54Z" fill="#de9a9a" stroke="#de9a9a"></path><path d="M900 203L900 185L822.4 166Z" fill="#ffffff" stroke="#ffffff"></path><path d="M614.9 0L563.3 0L651.9 147Z" fill="#f6dddc" stroke="#f6dddc"></path><path d="M721.9 54L614.9 0L651.9 147Z" fill="#e2a5a5" stroke="#e2a5a5"></path><path d="M410.7 0L365.7 54L430.3 85Z" fill="#fcf3f3" stroke="#fcf3f3"></path><path d="M430.3 85L365.7 54L341.1 223Z" fill="#fcf3f3" stroke="#fcf3f3"></path><path d="M341.1 223L195.1 164L309.7 280Z" fill="#ffffff" stroke="#ffffff"></path><path d="M309.7 280L194.6 407L315.7 377Z" fill="#de9a9a" stroke="#de9a9a"></path><path d="M213.1 577L245.1 600L334.7 600Z" fill="#e2a5a5" stroke="#e2a5a5"></path><path d="M195.1 164L194.6 407L309.7 280Z" fill="#efc6c6" stroke="#efc6c6"></path><path d="M900 0L693.4 0L721.9 54Z" fill="#de9a9a" stroke="#de9a9a"></path><path d="M721.9 54L693.4 0L614.9 0Z" fill="#efc6c6" stroke="#efc6c6"></path><path d="M845.4 600L900 600L900 411Z" fill="#e2a5a5" stroke="#e2a5a5"></path><path d="M213.1 577L334.7 600L315.7 377Z" fill="#f6dddc" stroke="#f6dddc"></path><path d="M563.3 0L410.7 0L430.3 85Z" fill="#d98f8f" stroke="#d98f8f"></path><path d="M194.6 407L213.1 577L315.7 377Z" fill="#ebbbbb" stroke="#ebbbbb"></path><path d="M270.1 0L195.1 164L365.7 54Z" fill="#de9a9a" stroke="#de9a9a"></path><path d="M365.7 54L195.1 164L341.1 223Z" fill="#ebbbbb" stroke="#ebbbbb"></path><path d="M410.7 0L270.1 0L365.7 54Z" fill="#de9a9a" stroke="#de9a9a"></path><path d="M900 185L900 0L822.4 166Z" fill="#e7b0b0" stroke="#e7b0b0"></path><path d="M72.6 227L82.6 444L194.6 407Z" fill="#e7b0b0" stroke="#e7b0b0"></path><path d="M194.6 407L82.6 444L213.1 577Z" fill="#f9e8e8" stroke="#f9e8e8"></path><path d="M50.6 75L72.6 227L195.1 164Z" fill="#ffffff" stroke="#ffffff"></path><path d="M195.1 164L72.6 227L194.6 407Z" fill="#f6dddc" stroke="#f6dddc"></path><path d="M0 600L68.6 600L82.6 444Z" fill="#e2a5a5" stroke="#e2a5a5"></path><path d="M82.6 444L68.6 600L213.1 577Z" fill="#e7b0b0" stroke="#e7b0b0"></path><path d="M213.1 577L68.6 600L245.1 600Z" fill="#ffffff" stroke="#ffffff"></path><path d="M0 299L0 398L82.6 444Z" fill="#ffffff" stroke="#ffffff"></path><path d="M0 264L0 299L72.6 227Z" fill="#d98f8f" stroke="#d98f8f"></path><path d="M72.6 227L0 299L82.6 444Z" fill="#fcf3f3" stroke="#fcf3f3"></path><path d="M0 58L0 264L72.6 227Z" fill="#de9a9a" stroke="#de9a9a"></path><path d="M270.1 0L104.6 0L195.1 164Z" fill="#e7b0b0" stroke="#e7b0b0"></path><path d="M104.6 0L50.6 75L195.1 164Z" fill="#ffffff" stroke="#ffffff"></path><path d="M0 398L0 600L82.6 444Z" fill="#f6dddc" stroke="#f6dddc"></path><path d="M0 0L0 58L50.6 75Z" fill="#e2a5a5" stroke="#e2a5a5"></path><path d="M50.6 75L0 58L72.6 227Z" fill="#f6dddc" stroke="#f6dddc"></path><path d="M104.6 0L0 0L50.6 75Z" fill="#f3d1d1" stroke="#f3d1d1"></path></g></svg>