<svg id="visual" viewBox="0 0 900 600" width="900" height="600" xmlns="http://www.w3.org/2000/svg" xmlns:xlink="http://www.w3.org/1999/xlink" version="1.1"><rect width="900" height="600" fill="#18abcc"></rect><g><g transform="translate(288 63)"><path d="M0 -85.9L74.4 -42.9L74.4 42.9L0 85.9L-74.4 42.9L-74.4 -42.9Z" fill="#FFF"></path></g><g transform="translate(888 509)"><path d="M0 -79L68.4 -39.5L68.4 39.5L0 79L-68.4 39.5L-68.4 -39.5Z" fill="#FFF"></path></g><g transform="translate(64 558)"><path d="M0 -82L71 -41L71 41L0 82L-71 41L-71 -41Z" fill="#FFF"></path></g><g transform="translate(135 377)"><path d="M0 -67L58 -33.5L58 33.5L0 67L-58 33.5L-58 -33.5Z" fill="#FFF"></path></g><g transform="translate(652 44)"><path d="M0 -75L65 -37.5L65 37.5L0 75L-65 37.5L-65 -37.5Z" fill="#FFF"></path></g><g transform="translate(310 414)"><path d="M0 -42L36.4 -21L36.4 21L0 42L-36.4 21L-36.4 -21Z" fill="#FFF"></path></g></g></svg>